nColumns=19
nRows=13
DataType=double
version=3
OpenSimVersion=4.1
endheader
time	ground_force_1_vx	ground_force_1_vy	ground_force_1_vz	ground_force_1_px	ground_force_1_py	ground_force_1_pz	ground_moment_1_mx	ground_moment_1_my	ground_moment_1_mz	ground_force_2_vx	ground_force_2_vy	ground_force_2_vz	ground_force_2_px	ground_force_2_py	ground_force_2_pz	ground_moment_2_mx	ground_moment_2_my	ground_moment_2_mz
2.715	0.03823435974407843	0.3816658700830234	0.04944963047649653	0.5510351716232778	0.001556419937646547	-0.3112748812787594	0.0001102357542885725	0.02298858965735946	5.401809302019604e-05	0.01846557760467158	0.3992294065818847	0.0173414572293723	1.007737881237301	-6.021247334290856e-05	-0.2196086303425251	4.011092771286494e-05	0.009706078436235546	2.883930081527804e-05
2.716	0.03714394984727967	0.1429772768007188	0.09482610180743256	0.2438292867593223	0.003543664778317675	-0.5300697903587221	4.887849576514842e-05	0.01019313279494166	2.395160397793687e-05	0.03281737498577628	0.1596597979719855	-0.02955839213694131	0.7687097815103658	0.0004732842566378643	-0.0667104116559598	-1.507965050947163e-05	-0.003648987420178939	-1.084209720465852e-05
2.717	0.02755813291704292	-0.2543494099466134	0.06325040367636177	0.5792050503822299	0.001681314790218023	-0.4219134472692016	0.0001234066466146848	0.02573525058475375	6.047213773030397e-05	0.03183586052024358	-0.08046747677844336	-0.03016225596927624	-0.1132790473880457	0.005139393443211974	-0.4104160951230779	0.0001593402163020207	0.03855728913939113	0.0001145638032308983
2.718	0.04474190764237881	0.1429254535011681	0.1024494609706016	0.532242127336061	-3.321976892816442e-05	0.403582644614166	-4.568969204705621e-06	-0.0009528138931143305	-2.238901571445811e-06	0.026509448828689	0.4795776045314527	-0.02849576960285534	1.034360414672209	0.0001572507869260151	-0.3298252405048173	-2.904118315619154e-05	-0.0070274116722728	-2.088028038315279e-05
2.719	0.05238009491095851	0.1429773246550352	0.1177792147310208	0.532097216486706	0.001063481233746128	-0.06284690818568461	0.0001307807297682274	0.02727304358857604	6.408561062117726e-05	0.01916833691584798	0.5593064652118201	-0.02043134247116033	0.830504348114772	0.0005203754269519804	-0.1685058055749711	2.794615474103046e-05	0.006762435709524095	2.009296740719341e-05
2.72	0.043895990732846	-0.01752656157565818	0.09448615137562702	-1.652624134928593	-0.007382805543910055	7.990059120557263	-0.00250531282750283	-0.5224585156283721	-0.001227661771211442	0.02451227858400856	-0.0003440688212363809	-0.00672056022339501	-232.0749632244918	0.9178664562273803	15.02677798859568	0.004968916145393996	1.202382806887878	0.003572594193500742
2.721	0.02016495436693085	-0.1756060385294328	0.08643691970653454	0.5850129150450436	0.002055202619512985	-0.5928818712008103	0.000249848584569567	0.05210348152656729	0.0001224316390752204	0.01818098376721859	0.3191359666458042	-0.00560442119611862	1.098336189026169	-0.000614752120059046	-0.1589822252988999	6.473298635818217e-05	0.01566414637681799	4.654228093697622e-05
2.722	0.01450169666176364	0.222043760377186	0.05668924824620944	0.7307248485299853	0.0007997715501606133	-0.3559626449871419	0.0001238798552624756	0.0258339336254476	6.070402101462755e-05	0.01687574738564862	-0.0005448649470146034	0.008712199009882174	-227.4025256986359	0.9165275741645036	8.978763487809472	-0.008834961604872562	-2.137891971282397	-0.006352236907565472
2.723	0.02866615934295237	-0.0162052386373821	0.07147621610403367	-4.386877107355188	0.02412220617976901	0.1622495072736324	-0.001624962392647562	-0.3388700326341238	-0.0007962695066300793	0.03989284899930621	-4.343855080546187e-05	-0.0374767925710113	6073.049088095161	-13.98869432594828	-3737.495780376895	-0.3243240769807872	-78.48023243116293	-0.2331853225794724
2.724	0.02332447458026806	0.462652909277229	0.05731174631299439	0.1937620331514897	0.003158409520014757	-0.2639427260858721	2.337143585222584e-05	0.004873884630059771	1.145254916636384e-05	0.05396062470753813	-0.3203837908154035	0.0001985552633757775	0.9746905843154345	0.000757842921744347	-0.4489675920708838	3.031119122125382e-05	0.007334729368397604	2.179340173722242e-05
2.725	0.02101355322203959	-0.01580284264457104	0.1097511062808174	8.885539682703788	-0.04975568904076028	4.517341083751987	0.004074844938577238	0.849769104542073	0.001996769145868296	0.01087599205716143	0.3997863416106792	0.002298302678896185	0.5920090813941583	0.001407748539990918	-0.1354483687100842	2.898037549425291e-05	0.007012697379436559	2.083656036582795e-05
2.726	-0.002672570030119431	-0.1756566613898049	0.0480941153111398	-0.1235954772264013	0.004110369096333293	-0.02143256452996604	-0.0001203614641824865	-0.02510020753708384	-5.897992724970667e-05	0.01025278374552631	0.2397624638107284	-0.01338885278976505	1.074912550371996	1.522451001508953e-05	-0.338426891479001	2.466447520995189e-05	0.005968331939118874	1.773347714923657e-05
2.727	0.01263101587528689	-0.1763526401551057	0.0634392801413018	0.1122537911792745	0.002531223554098104	0.1693055067813138	-7.036246656669491e-05	-0.01467340502743858	-3.447925120719358e-05	0.03927137853150428	-0.1601387812740049	-0.01458688171919493	1.045404305758117	0.0004251513514874252	-0.4353494565478179	5.34225930009805e-05	0.01292724719922887	3.841023675434209e-05
